<?xml version="1.0" encoding="UTF-8"?>
<svg width="13px" height="16px" viewBox="0 0 13 16" version="1.1" xmlns="http://www.w3.org/2000/svg" xmlns:xlink="http://www.w3.org/1999/xlink">
    <title>编组</title>
    <defs>
        <polygon id="path-1" points="0 0 10.0803585 0 10.0803585 13.1025869 0 13.1025869"></polygon>
    </defs>
    <g id="微信" stroke="none" stroke-width="1" fill="none" fill-rule="evenodd">
        <g id="车队派车" transform="translate(-28.000000, -183.000000)">
            <g id="编组" transform="translate(28.000000, 183.000000)">
                <g transform="translate(0.000000, 2.884037)">
                    <mask id="mask-2" fill="white">
                        <use xlink:href="#path-1"></use>
                    </mask>
                    <g id="Clip-2"></g>
                    <path d="M8.43347941,2.16422142 C6.48132147,-0.0204572836 3.30679892,-0.624905387 0.688504995,0.689620471 C-0.504106287,3.06696528 -0.124004721,5.93154486 1.64740961,7.91553146 L6.16566077,12.9746369 C6.17607974,12.985903 6.18734577,12.9976137 6.19950123,13.0084562 C6.24996543,13.0534568 6.31050977,13.0857302 6.37603065,13.1025869 L8.43347941,10.7996148 C10.6293183,8.33997715 10.6293183,4.6239438 8.43347941,2.16422142" id="Fill-1" fill="#FFA300" mask="url(#mask-2)"></path>
                </g>
                <path d="M6.4818276,0 C3.92704276,0.000825893425 1.61100466,1.50232132 0.567562432,3.83424199 C-0.475900968,6.16624737 -0.0521964644,8.89366511 1.64956753,10.7991707 L6.16565865,15.8586785 C6.17607762,15.8699233 6.18734365,15.8816553 6.19949911,15.8924978 C6.37454616,16.0481045 6.64247446,16.0330267 6.79890714,15.8586785 L11.3167559,10.799573 C13.0186682,8.8935804 13.4421186,6.1656756 12.3979987,3.8334161 C11.3538788,1.5012413 9.0370995,0 6.4818276,0 M6.4818276,1.38783962 C8.49023099,1.38733154 10.3114319,2.56677088 11.1324335,4.39972486 C11.9533715,6.23259414 11.620833,8.37680406 10.2832244,9.8749112 L6.4818276,14.1295329 L2.68216725,9.8749112 C1.34481285,8.37707936 1.01210486,6.23325062 1.83261939,4.40046605 C2.65313392,2.56776619 4.47376303,1.38798802 6.4818276,1.38783962" id="Fill-3" fill="#A16524"></path>
                <path d="M6.50126786,3.85764436 C5.47618588,3.85764436 4.55192643,4.47517976 4.15966941,5.42233128 C3.76737003,6.36950398 3.98428353,7.4596833 4.70926972,8.18450007 C5.43421355,8.90938038 6.52443523,9.12612446 7.47148087,8.73367685 C8.41859003,8.34125041 9.03599831,7.41692743 9.0358501,6.39176074 C9.0358501,5.71954703 8.76883238,5.07499015 8.29343541,4.5996779 C7.81810198,4.12442917 7.1734604,3.85749618 6.50126786,3.85764436 M6.50126786,5.24548412 C6.96514467,5.24531479 7.38349145,5.52457265 7.56110089,5.95316898 C7.73868915,6.38165943 7.64059843,6.87501428 7.31259168,7.20299985 C6.9846061,7.53098543 6.49123008,7.62909733 6.0626761,7.45150907 C5.63418565,7.27389963 5.35480073,6.85565873 5.35507582,6.39176074 C5.35598662,5.7591052 5.86861232,5.2463948 6.50126786,5.24548412" id="Fill-5" fill="#A16524"></path>
            </g>
        </g>
    </g>
</svg>